# xmcd
#
# Track frame offsets:
#	150
#	86289
#	130581
#	201606
#	238141
#	270737
#	293301
#	307677
#	328155
#
# Disc length: 4531 seconds
#
# Revision: 0
# Processed by: cddbd v1.5.1PL0 Copyright (c) Steve Scherf et al.
# Submitted via: audiograbber 1.83.01
#
DISCID=7711b109
DTITLE=Captain Beefheart - Mirror Man Sessions
DYEAR=1900
DGENRE=
TTITLE0=Tarotplane 
TTITLE1=25th Century Quaker
TTITLE2=Mirror Man
TTITLE3=Kandy Korn
TTITLE4=Trust Us (Take 6)
TTITLE5=Safe as milk (Take 12)
TTITLE6=Beatle bones 'N Smokin' Stones
TTITLE7=Moody Liz (Take 8)
TTITLE8=Gimme Dat Harp boy
EXTD=
EXTT0=
EXTT1=
EXTT2=
EXTT3=
EXTT4=
EXTT5=
EXTT6=
EXTT7=
EXTT8=
PLAYORDER=
